<svg width="24" height="24" viewBox="0 0 24 24" fill="none" xmlns="http://www.w3.org/2000/svg">
<path d="M19 10.5V7.7C19 6.5799 19 6.01984 18.782 5.59202C18.5903 5.21569 18.2843 4.90973 17.908 4.71799C17.4802 4.5 16.9201 4.5 15.8 4.5H7.2C6.0799 4.5 5.51984 4.5 5.09202 4.71799C4.71569 4.90973 4.40973 5.21569 4.21799 5.59202C4 6.01984 4 6.57989 4 7.7V13.3C4 14.4201 4 14.9802 4.21799 15.408C4.40973 15.7843 4.71569 16.0903 5.09202 16.282C5.51984 16.5 6.07989 16.5 7.2 16.5H14" stroke="#33363F" stroke-width="1.4" stroke-linecap="round"/>
<path d="M8 12.5H12" stroke="#33363F" stroke-width="2" stroke-linecap="round"/>
<path d="M8 8.5L14 8.5" stroke="#33363F" stroke-width="2" stroke-linecap="round"/>
<circle cx="18" cy="14.5" r="1" stroke="#33363F" stroke-width="2"/>
<path d="M20 18.5C20 18.5 20 18.5 17.8571 18.5C15.7143 18.5 15 19.5 15 19.5" stroke="#33363F" stroke-width="2" stroke-linecap="round"/>
</svg>
