<svg width="24" height="24" viewBox="0 0 24 24" fill="none" xmlns="http://www.w3.org/2000/svg">
<path d="M13.6358 4.90949C14.2888 4.47412 14.6153 4.25643 14.9711 4.29166C15.3269 4.32689 15.6044 4.60439 16.1594 5.15938L18.8406 7.84062C19.3956 8.39561 19.6731 8.67311 19.7083 9.02888C19.7436 9.38465 19.5259 9.71118 19.0905 10.3642L16 15L14.3158 18.3683C14.1469 18.7061 13.7228 18.8236 13.4042 18.6208C10.1885 16.5745 7.55115 13.7379 5.74409 10.3819L5.43231 9.80285C5.21306 9.39569 5.43599 8.891 5.88462 8.77885L6.9254 8.51865C7.65345 8.33664 8.01747 8.24563 8.3693 8.12191C8.76367 7.98323 9.14656 7.81385 9.51447 7.61532C9.84267 7.43822 10.1549 7.23008 10.7793 6.8138L13.6358 4.90949Z" stroke="#33363F" stroke-width="1.7"/>
<path d="M4 20L8.5 15.5" stroke="#33363F" stroke-width="1.7" stroke-linecap="round"/>
</svg>
