<svg width="24" height="24" viewBox="0 0 24 24" fill="none" xmlns="http://www.w3.org/2000/svg">
<path d="M4 9L3.29289 9.70711L2.58579 9L3.29289 8.29289L4 9ZM9 21C8.44772 21 8 20.5523 8 20C8 19.4477 8.44772 19 9 19L9 20L9 21ZM9 14L8.29289 14.7071L3.29289 9.70711L4 9L4.70711 8.29289L9.70711 13.2929L9 14ZM4 9L3.29289 8.29289L8.29289 3.29289L9 4L9.70711 4.70711L4.70711 9.70711L4 9ZM4 9L4 8L14.5 8L14.5 9L14.5 10L4 10L4 9ZM14.5 20L14.5 21L9 21L9 20L9 19L14.5 19L14.5 20ZM20 14.5L21 14.5C21 18.0898 18.0898 21 14.5 21L14.5 20L14.5 19C16.9853 19 19 16.9853 19 14.5L20 14.5ZM14.5 9L14.5 8C18.0899 8 21 10.9101 21 14.5L20 14.5L19 14.5C19 12.0147 16.9853 10 14.5 10L14.5 9Z" fill="#33363F"/>
</svg>
